<svg width="20" height="20" viewBox="0 0 20 20" fill="none" xmlns="http://www.w3.org/2000/svg">
<rect width="20" height="20" fill="#FCDAD1"/>
<path d="M9.99992 3.33325C6.32392 3.33325 3.33325 6.32392 3.33325 9.99992C3.33325 13.6759 6.32392 16.6666 9.99992 16.6666C13.6759 16.6666 16.6666 13.6759 16.6666 9.99992C16.6666 6.32392 13.6759 3.33325 9.99992 3.33325ZM9.99992 15.3333C7.05925 15.3333 4.66659 12.9406 4.66659 9.99992C4.66659 7.05925 7.05925 4.66659 9.99992 4.66659C12.9406 4.66659 15.3333 7.05925 15.3333 9.99992C15.3333 12.9406 12.9406 15.3333 9.99992 15.3333Z" fill="#C6340D"/>
<path d="M11.886 11.8854C11.6423 12.1283 11.3544 12.3224 11.038 12.4574C10.4681 12.6979 9.83247 12.7331 9.23964 12.5567C8.64681 12.3804 8.13366 12.0036 7.78795 11.4907L6.68262 12.2367C6.97091 12.6621 7.33768 13.0287 7.76328 13.3167C8.19639 13.6096 8.68301 13.8142 9.19528 13.9187C9.72648 14.0271 10.2741 14.0271 10.8053 13.9187C11.3175 13.814 11.8041 13.6095 12.2373 13.3167C12.446 13.1754 12.6453 13.0114 12.828 12.8294C13.0093 12.6487 13.1746 12.4487 13.3173 12.2367L12.212 11.4907C12.1161 11.6324 12.007 11.7645 11.886 11.8854Z" fill="#C6340D"/>
<path d="M7.66675 10C8.21903 10 8.66675 9.55228 8.66675 9C8.66675 8.44772 8.21903 8 7.66675 8C7.11446 8 6.66675 8.44772 6.66675 9C6.66675 9.55228 7.11446 10 7.66675 10Z" fill="#C6340D"/>
<path d="M12.3286 9.99067C12.8783 9.99067 13.3239 9.54504 13.3239 8.99533C13.3239 8.44563 12.8783 8 12.3286 8C11.7789 8 11.3333 8.44563 11.3333 8.99533C11.3333 9.54504 11.7789 9.99067 12.3286 9.99067Z" fill="#C6340D"/>
</svg>
