<svg width="20" height="20" viewBox="0 0 20 20" fill="none" xmlns="http://www.w3.org/2000/svg">
<path d="M4.76719 15.5519L6.82682 14.8647L7.1978 15.0451C8.05631 15.4617 9.03747 15.6837 10.1088 15.6837C13.6524 15.6837 16.1904 13.1517 16.1904 10.1089C16.1904 7.05492 13.6706 4.5341 10.1088 4.5341C6.54707 4.5341 4.02727 7.05492 4.02727 10.1089C4.03326 11.2776 4.41807 12.4128 5.12398 13.3443L5.46657 13.8004L4.76719 15.5509V15.5519ZM4.05058 16.8594C3.95886 16.8902 3.86025 16.894 3.76642 16.8705C3.67258 16.847 3.58744 16.7971 3.52103 16.7268C3.45463 16.6564 3.40975 16.5685 3.39169 16.4735C3.37363 16.3785 3.38314 16.2803 3.41911 16.1905L4.31412 13.9535C3.47605 12.8464 3.01974 11.4974 3.01367 10.1089C3.01367 6.74982 5.73214 3.52051 10.1088 3.52051C14.4856 3.52051 17.204 6.74982 17.204 10.1089C17.204 13.4679 14.4572 16.6973 10.1088 16.6973C8.84692 16.6973 7.7198 16.4256 6.75587 15.9573L4.04957 16.8594H4.05058Z" fill="#878787"/>
</svg>
