<svg width="40" height="40" viewBox="0 0 40 40" fill="none" xmlns="http://www.w3.org/2000/svg">
<g clip-path="url(#clip0_1127_28126)">
<rect width="40" height="40" fill="white"/>
<path d="M42 -2H-2V42H42V-2Z" fill="#222222"/>
<path d="M29.6738 24.9175L30.3531 25.6163C29.0207 28.101 25.9638 31.6469 21.2609 31.6469C14.7553 31.6469 10.0786 26.5739 10.0786 20.0775C10.0786 13.7363 14.5202 8.35278 21.3132 8.35278C26.6953 8.35278 29.9351 11.7693 29.9351 14.7975C29.9351 16.6093 28.5765 17.8516 26.9305 17.8516C25.2322 17.8516 23.8998 16.5575 23.8998 14.9269C23.8998 13.3998 24.8926 12.0281 26.4341 12.0281C25.6503 10.7857 24.37 10.1645 22.4105 10.1645C19.1708 10.1645 16.4536 12.4163 16.4536 17.8775C16.4536 24.6069 19.4582 27.6351 23.743 27.6351C26.4602 27.6351 28.0539 26.3669 29.6738 24.9175Z" fill="white"/>
</g>
<defs>
<clipPath id="clip0_1127_28126">
<rect width="40" height="40" fill="white"/>
</clipPath>
</defs>
</svg>
