<svg width="20" height="20" viewBox="0 0 20 20" fill="none" xmlns="http://www.w3.org/2000/svg">
<path d="M2.76514 16.5308C2.76514 17.9956 3.50488 18.7427 4.94775 18.7427H11.4517C12.9019 18.7427 13.6416 17.9956 13.6416 16.5308V15.249H14.8354C16.2856 15.249 17.0254 14.502 17.0254 13.0371V7.46338C17.0254 6.5918 16.8496 6.03516 16.3149 5.49316L12.8359 1.94824C12.3306 1.43555 11.7373 1.24512 10.9756 1.24512H8.33154C6.88867 1.24512 6.14893 1.99219 6.14893 3.44971V4.73145H4.94775C3.50488 4.73145 2.76514 5.47852 2.76514 6.94336V16.5308ZM12.9678 9.26514L9.17383 5.40527C8.63184 4.85596 8.18506 4.73145 7.38672 4.73145H7.35742V3.49365C7.35742 2.82715 7.70898 2.44629 8.41211 2.44629H11.415V5.91064C11.415 6.73096 11.8325 7.14111 12.6455 7.14111H15.8169V12.9932C15.8169 13.6743 15.458 14.0405 14.7549 14.0405H13.6416V11.1548C13.6416 10.2466 13.5317 9.84375 12.9678 9.26514ZM12.4624 5.74219V2.99561L15.5093 6.08643H12.8066C12.5649 6.08643 12.4624 5.98389 12.4624 5.74219ZM3.97363 16.4868V6.9873C3.97363 6.3208 4.3252 5.93994 5.02832 5.93994H7.24756V9.87305C7.24756 10.7886 7.70898 11.2427 8.61719 11.2427H12.4331V16.4868C12.4331 17.1606 12.0742 17.5342 11.3711 17.5342H5.02832C4.3252 17.5342 3.97363 17.1606 3.97363 16.4868ZM8.7417 10.1367C8.46338 10.1367 8.35352 10.0269 8.35352 9.74854V6.19629L12.228 10.1367H8.7417Z" fill="#909090"/>
</svg>
