<svg width="20" height="20" viewBox="0 0 20 20" fill="none" xmlns="http://www.w3.org/2000/svg">
<path d="M17.2389 3.84898L17.7982 3.28166C18.0619 3.002 18.0699 2.61846 17.8062 2.35478L17.6224 2.16301C17.3827 1.9233 16.9912 1.95526 16.7355 2.21095L16.1682 2.77028L17.2389 3.84898ZM8.20174 12.0311L9.70393 11.3919L16.6875 4.40032L15.6088 3.3376L8.63322 10.3212L7.94605 11.7675C7.88213 11.9113 8.04992 12.0951 8.20174 12.0311ZM5.4131 16.9852H14.2585C15.6488 16.9852 16.4558 16.1781 16.4558 14.604V6.55772L15.1454 7.86815V14.5161C15.1454 15.2832 14.7299 15.6748 14.2185 15.6748H5.45305C4.71793 15.6748 4.31042 15.2832 4.31042 14.5161V5.9984C4.31042 5.23132 4.71793 4.83979 5.45305 4.83979H12.181L13.4994 3.52937H5.4131C3.81502 3.52937 3 4.32841 3 5.9105V14.604C3 16.1861 3.81502 16.9852 5.4131 16.9852Z" fill="#909090"/>
</svg>
