<svg width="20" height="20" viewBox="0 0 20 20" fill="none" xmlns="http://www.w3.org/2000/svg">
<path fill-rule="evenodd" clip-rule="evenodd" d="M5.09114 4.00012C4.80182 4.00012 4.52434 4.11506 4.31976 4.31964C4.11518 4.52422 4.00024 4.80169 4.00024 5.09102V14.9091C4.00024 15.1984 4.11518 15.4759 4.31976 15.6804C4.52434 15.885 4.80182 16 5.09114 16H14.9092C15.1985 16 15.476 15.885 15.6806 15.6804C15.8851 15.4759 16.0001 15.1984 16.0001 14.9091V11.0909C16.0001 10.9463 15.9426 10.8075 15.8403 10.7052C15.738 10.603 15.5993 10.5455 15.4546 10.5455C15.31 10.5455 15.1712 10.603 15.0689 10.7052C14.9667 10.8075 14.9092 10.9463 14.9092 11.0909V14.9091H5.09114V5.09102H8.90927C9.05393 5.09102 9.19267 5.03355 9.29496 4.93126C9.39725 4.82897 9.45472 4.69023 9.45472 4.54557C9.45472 4.40091 9.39725 4.26217 9.29496 4.15988C9.19267 4.05759 9.05393 4.00012 8.90927 4.00012H5.09114ZM15.8408 4.15939C15.9422 4.26108 15.9995 4.39867 16.0001 4.5423V7.81825C16.0001 7.96292 15.9426 8.10165 15.8403 8.20394C15.738 8.30623 15.5993 8.3637 15.4546 8.3637C15.31 8.3637 15.1712 8.30623 15.0689 8.20394C14.9667 8.10165 14.9092 7.96292 14.9092 7.81825V5.86228L9.29544 11.4771C9.24473 11.5278 9.18453 11.5681 9.11827 11.5955C9.05201 11.6229 8.98099 11.6371 8.90927 11.6371C8.83755 11.6371 8.76653 11.6229 8.70027 11.5955C8.63401 11.5681 8.5738 11.5278 8.52309 11.4771C8.47238 11.4264 8.43215 11.3662 8.4047 11.2999C8.37726 11.2337 8.36313 11.1627 8.36313 11.0909C8.36313 11.0192 8.37726 10.9482 8.4047 10.8819C8.43215 10.8157 8.47238 10.7555 8.52309 10.7048L14.1379 5.09102H12.182C12.0373 5.09102 11.8986 5.03355 11.7963 4.93126C11.694 4.82897 11.6365 4.69023 11.6365 4.54557C11.6365 4.40091 11.694 4.26217 11.7963 4.15988C11.8986 4.05759 12.0373 4.00012 12.182 4.00012H15.4546C15.5263 3.99994 15.5973 4.01391 15.6636 4.04124C15.7299 4.06857 15.7901 4.10873 15.8408 4.15939Z" fill="#909090"/>
</svg>
