<svg width="20" height="20" viewBox="0 0 20 20" fill="none" xmlns="http://www.w3.org/2000/svg">
<path fill-rule="evenodd" clip-rule="evenodd" d="M15.9 10C15.9 13.2585 13.2585 15.9 10 15.9C6.74152 15.9 4.1 13.2585 4.1 10C4.1 6.74152 6.74152 4.1 10 4.1C13.2585 4.1 15.9 6.74152 15.9 10ZM17 10C17 13.866 13.866 17 10 17C6.13401 17 3 13.866 3 10C3 6.13401 6.13401 3 10 3C13.866 3 17 6.13401 17 10ZM14.5168 10.3831C14.6179 10.2811 14.6747 10.1434 14.6749 9.99975C14.6749 9.92806 14.6607 9.85709 14.6331 9.7909C14.6056 9.72471 14.5653 9.66462 14.5144 9.61406L12.2003 7.29992C12.098 7.19763 11.9593 7.14017 11.8146 7.14017C11.67 7.14017 11.5312 7.19763 11.4289 7.29992C11.3266 7.40221 11.2692 7.54095 11.2692 7.68561C11.2692 7.83027 11.3266 7.96901 11.4289 8.0713L12.812 9.45438L5.87221 9.45361C5.80049 9.45361 5.72948 9.46774 5.66322 9.49518C5.59696 9.52263 5.53675 9.56286 5.48604 9.61357C5.43532 9.66429 5.3951 9.72449 5.36765 9.79075C5.3402 9.85701 5.32608 9.92803 5.32608 9.99975C5.32608 10.0715 5.3402 10.1425 5.36765 10.2087C5.3951 10.275 5.43532 10.3352 5.48604 10.3859C5.53675 10.4366 5.59696 10.4769 5.66322 10.5043C5.72948 10.5318 5.80049 10.5459 5.87221 10.5459L12.812 10.5451L11.4289 11.9282C11.3266 12.0305 11.2692 12.1692 11.2692 12.3139C11.2692 12.4585 11.3266 12.5973 11.4289 12.6996C11.5312 12.8019 11.67 12.8593 11.8146 12.8593C11.9593 12.8593 12.098 12.8019 12.2003 12.6996L14.5168 10.3831Z" fill="#909090"/>
</svg>
