<svg width="20" height="20" viewBox="0 0 20 20" fill="none" xmlns="http://www.w3.org/2000/svg">
<rect width="20" height="20" fill="#BDEAB6"/>
<path d="M16.8906 14.1309H3.10938C3.03203 14.1309 2.96875 14.1942 2.96875 14.2715V15.2559C2.96875 15.3332 3.03203 15.3965 3.10938 15.3965H16.8906C16.968 15.3965 17.0312 15.3332 17.0312 15.2559V14.2715C17.0312 14.1942 16.968 14.1309 16.8906 14.1309ZM3.9127 11.9301L4.61055 12.6244C4.66504 12.6789 4.75469 12.6789 4.80918 12.6244L8.93477 8.51292L10.6504 10.2233C10.7561 10.328 10.8989 10.3868 11.0477 10.3868C11.1964 10.3868 11.3392 10.328 11.4449 10.2233L16.0891 5.59671C16.1436 5.54222 16.1436 5.45257 16.0891 5.39808L15.3912 4.70198C15.3648 4.67581 15.3291 4.66113 15.2919 4.66113C15.2547 4.66113 15.219 4.67581 15.1926 4.70198L11.0494 8.83284L9.33203 7.12249C9.22633 7.01777 9.08356 6.95901 8.93477 6.95901C8.78597 6.95901 8.6432 7.01777 8.5375 7.12249L3.9127 11.7315C3.89955 11.7445 3.88911 11.7599 3.88198 11.777C3.87486 11.794 3.87119 11.8123 3.87119 11.8308C3.87119 11.8493 3.87486 11.8676 3.88198 11.8846C3.88911 11.9017 3.89955 11.9171 3.9127 11.9301V11.9301Z" fill="#039200"/>
</svg>
