<svg width="40" height="40" viewBox="0 0 40 40" fill="none" xmlns="http://www.w3.org/2000/svg">
<g clip-path="url(#clip0_1162_25498)">
<rect width="40" height="40" fill="white"/>
<path d="M0.0074718 0.0102125L0 40.0002L39.99 39.9927V0.0100098L0.0074718 0.0102125ZM9.8132 6.60813C11.8791 6.60813 13.1516 7.96437 13.1909 9.74713C13.1909 11.4905 11.879 12.8849 9.77323 12.8849H9.73448C7.70788 12.8849 6.39799 11.4906 6.39799 9.74713C6.39799 7.96441 7.74756 6.60813 9.8132 6.60813ZM27.6164 14.9405C31.5896 14.9405 34.568 17.5374 34.568 23.118V33.5359H28.5299V23.8165C28.5299 21.3741 27.656 19.7077 25.4708 19.7077C23.8027 19.7077 22.8084 20.8309 22.3718 21.9158C22.2123 22.304 22.1731 22.8461 22.1731 23.3891V33.5359H16.135C16.135 33.5359 16.2142 17.0714 16.135 15.3666H22.1744V17.9396C22.9768 16.7016 24.412 14.9405 27.6164 14.9405ZM6.75416 15.3679H12.7923V33.536H6.75416V15.3679Z" fill="#2867B2"/>
</g>
<defs>
<clipPath id="clip0_1162_25498">
<rect width="40" height="40" fill="white"/>
</clipPath>
</defs>
</svg>
