<svg width="20" height="20" viewBox="0 0 20 20" fill="none" xmlns="http://www.w3.org/2000/svg">
<rect width="20" height="20" fill="#EAD0FF"/>
<path d="M10.0067 11.3334C10.7431 11.3334 11.34 10.7365 11.34 10.0001C11.34 9.2637 10.7431 8.66675 10.0067 8.66675C9.27029 8.66675 8.67334 9.2637 8.67334 10.0001C8.67334 10.7365 9.27029 11.3334 10.0067 11.3334Z" fill="#773DA4"/>
<path d="M9.33993 16.6667H10.6733L11.0066 12H9.00659L9.33993 16.6667Z" fill="#773DA4"/>
<path d="M10 3.33325C8.38132 3.34278 6.82139 3.94091 5.61129 5.01606C4.4012 6.0912 3.62362 7.56989 3.42364 9.17622C3.22367 10.7825 3.61496 12.4067 4.52452 13.7458C5.43407 15.0848 6.79973 16.0471 8.36669 16.4533L8.26669 15.0399C7.0736 14.629 6.06486 13.8084 5.41973 12.7239C4.7746 11.6395 4.53488 10.3614 4.74319 9.11685C4.95149 7.8723 5.59432 6.74193 6.55742 5.92663C7.52052 5.11133 8.7415 4.66392 10.0034 4.66392C11.2652 4.66392 12.4862 5.11133 13.4493 5.92663C14.4124 6.74193 15.0552 7.8723 15.2635 9.11685C15.4718 10.3614 15.2321 11.6395 14.587 12.7239C13.9418 13.8084 12.9331 14.629 11.74 15.0399L11.64 16.4533C13.2075 16.047 14.5735 15.0841 15.483 13.7444C16.3925 12.4047 16.7834 10.7797 16.5825 9.17294C16.3817 7.56617 15.6029 6.08743 14.3916 5.01282C13.1803 3.93821 11.6193 3.34119 10 3.33325Z" fill="#773DA4"/>
<path d="M12.2133 8.40659C12.3124 8.54794 12.3951 8.70001 12.46 8.85992C12.5281 9.0209 12.5795 9.18845 12.6133 9.35992C12.6534 9.53487 12.6735 9.71379 12.6733 9.89326C12.6735 10.0749 12.6534 10.2561 12.6133 10.4333C12.5795 10.6047 12.5281 10.7723 12.46 10.9333C12.3951 11.0932 12.3124 11.2452 12.2133 11.3866C12.1413 11.4867 12.0634 11.5824 11.98 11.6733L11.8533 13.4199C11.9864 13.3591 12.1155 13.29 12.24 13.2133C12.6724 12.9292 13.044 12.5621 13.3333 12.1333C13.4781 11.9242 13.6009 11.7008 13.7 11.4666C13.8029 11.2239 13.881 10.9716 13.9333 10.7133C13.9834 10.4429 14.0057 10.1681 14 9.89326C13.9976 9.62218 13.9685 9.352 13.9133 9.08659C13.8128 8.57839 13.6159 8.09412 13.3333 7.65992C13.1896 7.44769 13.0267 7.24908 12.8467 7.06659C12.6659 6.88466 12.4671 6.7216 12.2533 6.57992C12.0429 6.43548 11.8198 6.31052 11.5867 6.20659C11.3341 6.1123 11.0728 6.04308 10.8067 5.99992C10.2764 5.89325 9.73025 5.89325 9.20001 5.99992C8.94099 6.05259 8.68842 6.13305 8.44667 6.23992C8.21248 6.339 7.98909 6.46186 7.78001 6.60659C7.56623 6.74826 7.36743 6.91133 7.18667 7.09326C6.99635 7.26582 6.82228 7.4555 6.66667 7.65992C6.37704 8.09261 6.17334 8.57696 6.06667 9.08659C6.01816 9.35266 5.99583 9.62284 6.00001 9.89326C5.99956 10.1641 6.02636 10.4344 6.08001 10.6999C6.13231 10.9582 6.21048 11.2106 6.31334 11.4533C6.41241 11.6874 6.53528 11.9108 6.68001 12.1199C6.97027 12.5435 7.33644 12.9097 7.76001 13.1999C7.88452 13.2767 8.01365 13.3457 8.14667 13.4066L8.00001 11.6733C7.91666 11.5824 7.83874 11.4867 7.76667 11.3866C7.66766 11.2452 7.58491 11.0932 7.52001 10.9333C7.45192 10.7723 7.40054 10.6047 7.36667 10.4333C7.33552 10.2551 7.32434 10.0739 7.33334 9.89326C7.33092 9.71404 7.34881 9.53512 7.38667 9.35992C7.42054 9.18845 7.47192 9.0209 7.54001 8.85992C7.60491 8.70001 7.68766 8.54794 7.78667 8.40659C7.88412 8.26038 7.99577 8.12417 8.12001 7.99992C8.24029 7.8806 8.37204 7.77342 8.51334 7.67992C8.65469 7.58091 8.80676 7.49816 8.96667 7.43326C9.12745 7.36302 9.29499 7.30941 9.46667 7.27326C9.82135 7.20663 10.1853 7.20663 10.54 7.27326C10.7117 7.30941 10.8792 7.36302 11.04 7.43326C11.3597 7.55901 11.6485 7.7523 11.8867 7.99992C12.0105 8.12281 12.12 8.25922 12.2133 8.40659Z" fill="#773DA4"/>
</svg>
