<svg width="20" height="20" viewBox="0 0 20 20" fill="none" xmlns="http://www.w3.org/2000/svg">
<rect width="20" height="20" fill="#BDDAFF"/>
<path d="M11.875 15.875H8.125C8.05625 15.875 8 15.9312 8 16V16.5C8 16.7766 8.22344 17 8.5 17H11.5C11.7766 17 12 16.7766 12 16.5V16C12 15.9312 11.9438 15.875 11.875 15.875ZM10 3C7.17031 3 4.875 5.29531 4.875 8.125C4.875 10.0219 5.90625 11.6781 7.4375 12.5641V14.375C7.4375 14.6516 7.66094 14.875 7.9375 14.875H12.0625C12.3391 14.875 12.5625 14.6516 12.5625 14.375V12.5641C14.0938 11.6781 15.125 10.0219 15.125 8.125C15.125 5.29531 12.8297 3 10 3ZM11.9984 11.5906L11.4375 11.9156V13.75H8.5625V11.9156L8.00156 11.5906C6.77188 10.8797 6 9.57031 6 8.125C6 5.91563 7.79063 4.125 10 4.125C12.2094 4.125 14 5.91563 14 8.125C14 9.57031 13.2281 10.8797 11.9984 11.5906Z" fill="#006ADC"/>
</svg>
