<svg width="20" height="20" viewBox="0 0 20 20" fill="none" xmlns="http://www.w3.org/2000/svg">
<rect width="20" height="20" fill="#FFD1EC"/>
<path d="M4.16675 6.49992C4.16675 6.49992 5.04175 5.33325 7.08341 5.33325C9.12508 5.33325 10.0001 6.49992 10.0001 6.49992V14.6666C10.0001 14.6666 9.12508 14.0833 7.08341 14.0833C5.04175 14.0833 4.16675 14.6666 4.16675 14.6666V6.49992ZM10.0001 6.49992C10.0001 6.49992 10.8751 5.33325 12.9167 5.33325C14.9584 5.33325 15.8334 6.49992 15.8334 6.49992V14.6666C15.8334 14.6666 14.9584 14.0833 12.9167 14.0833C10.8751 14.0833 10.0001 14.6666 10.0001 14.6666V6.49992Z" stroke="#D4198C" stroke-width="1.33333" stroke-linecap="round" stroke-linejoin="round"/>
</svg>
