<svg width="23" height="24" viewBox="0 0 23 24" fill="none" xmlns="http://www.w3.org/2000/svg">
<g clip-path="url(#clip0_1069_23730)">
<rect width="23" height="23" transform="translate(0 0.5)" fill="white"/>
<rect width="23" height="23" transform="translate(0 0.5)" fill="white"/>
<path d="M8.05698 15.4046C10.2174 15.4046 11.5314 14.3496 11.5314 12.6882V12.6819C11.5314 11.2732 10.7228 10.5088 8.8403 10.1108L7.84219 9.90234C6.70511 9.65598 6.1871 9.23904 6.1871 8.55679V8.55048C6.1871 7.75452 6.90726 7.21756 8.03802 7.21124C9.11825 7.21124 9.85104 7.72293 9.97739 8.56943L9.9837 8.65787H11.3608L11.3545 8.55048C11.2598 7.02173 9.95843 5.98572 8.05698 5.98572C6.13025 5.98572 4.75943 7.05331 4.75311 8.60733V8.61365C4.75311 9.96552 5.61856 10.7867 7.40631 11.1658L8.3981 11.3742C9.60467 11.6396 10.1037 12.0375 10.1037 12.7703V12.7766C10.1037 13.6295 9.33304 14.179 8.11383 14.179C6.89462 14.179 6.05444 13.6547 5.9281 12.8145L5.91547 12.7324H4.53833L4.54465 12.8272C4.65836 14.4317 6.01022 15.4046 8.05698 15.4046Z" fill="#434343"/>
<path d="M12.8075 15.253H14.2225V11.4374H18.1391V10.2435H14.2225V7.35654H18.4992V6.13733H12.8075V15.253Z" fill="#434343"/>
<rect x="3.09058" y="17.6603" width="16.8188" height="2.74922" rx="1.37461" fill="#62BB47"/>
<rect x="3.09058" y="17.6603" width="16.8188" height="2.74922" rx="1.37461" stroke="#3C9A1F"/>
</g>
<defs>
<clipPath id="clip0_1069_23730">
<rect width="23" height="23" fill="white" transform="translate(0 0.5)"/>
</clipPath>
</defs>
</svg>
