<svg width="40" height="40" viewBox="0 0 40 40" fill="none" xmlns="http://www.w3.org/2000/svg">
<rect width="40" height="40" fill="white"/>
<g clip-path="url(#clip0_1127_28125)">
<path d="M33.3333 12.5521C32.3611 12.9862 31.3108 13.2813 30.1823 13.4375C31.3629 12.7431 32.1701 11.7275 32.6042 10.3907C31.4757 11.0504 30.3125 11.4931 29.1146 11.7188C28.0556 10.573 26.7274 10 25.1302 10C23.6198 10 22.3307 10.5339 21.263 11.6016C20.1953 12.6693 19.6615 13.9584 19.6615 15.4688C19.6615 15.9723 19.7049 16.3889 19.7917 16.7188C17.5521 16.5973 15.4514 16.033 13.4896 15.0261C11.5278 14.0191 9.86111 12.6737 8.48958 10.9896C7.98611 11.8577 7.73438 12.7778 7.73438 13.75C7.73438 15.7292 8.52431 17.2483 10.1042 18.3073C9.28819 18.29 8.42014 18.0643 7.5 17.6303V17.6823C7.5 18.9844 7.93403 20.1433 8.80208 21.1589C9.67014 22.1745 10.7378 22.8039 12.0052 23.0469C11.5017 23.1858 11.059 23.2553 10.6771 23.2553C10.4514 23.2553 10.1128 23.2205 9.66146 23.1511C10.026 24.2448 10.6727 25.1476 11.6016 25.8594C12.5304 26.5712 13.5851 26.9358 14.7656 26.9532C12.7517 28.5157 10.4861 29.2969 7.96875 29.2969C7.51736 29.2969 7.08333 29.2709 6.66667 29.2188C9.23611 30.8507 12.0313 31.6667 15.0521 31.6667C16.9965 31.6667 18.8194 31.3586 20.5208 30.7422C22.2222 30.1259 23.6806 29.3013 24.8958 28.2683C26.1111 27.2353 27.1571 26.0461 28.0339 24.7006C28.9106 23.3551 29.5616 21.9488 29.987 20.4818C30.4123 19.0148 30.625 17.5521 30.625 16.0938C30.625 15.7813 30.6163 15.5469 30.599 15.3907C31.6927 14.6094 32.6042 13.6632 33.3333 12.5521ZM40 0V40L2.98023e-07 40L0 4.8697e-05L40 0Z" fill="#1DA1F2"/>
</g>
<defs>
<clipPath id="clip0_1127_28125">
<rect width="40" height="40" fill="white"/>
</clipPath>
</defs>
</svg>
