<svg width="20" height="20" viewBox="0 0 20 20" fill="none" xmlns="http://www.w3.org/2000/svg">
<path d="M10 10C10.8951 10 11.7536 9.64442 12.3865 9.01149C13.0194 8.37855 13.375 7.52011 13.375 6.625C13.375 5.72989 13.0194 4.87145 12.3865 4.23851C11.7536 3.60558 10.8951 3.25 10 3.25C9.10489 3.25 8.24645 3.60558 7.61351 4.23851C6.98058 4.87145 6.625 5.72989 6.625 6.625C6.625 7.52011 6.98058 8.37855 7.61351 9.01149C8.24645 9.64442 9.10489 10 10 10ZM12.25 6.625C12.25 7.22174 12.0129 7.79403 11.591 8.21599C11.169 8.63795 10.5967 8.875 10 8.875C9.40326 8.875 8.83097 8.63795 8.40901 8.21599C7.98705 7.79403 7.75 7.22174 7.75 6.625C7.75 6.02826 7.98705 5.45597 8.40901 5.03401C8.83097 4.61205 9.40326 4.375 10 4.375C10.5967 4.375 11.169 4.61205 11.591 5.03401C12.0129 5.45597 12.25 6.02826 12.25 6.625ZM16.75 15.625C16.75 16.75 15.625 16.75 15.625 16.75H4.375C4.375 16.75 3.25 16.75 3.25 15.625C3.25 14.5 4.375 11.125 10 11.125C15.625 11.125 16.75 14.5 16.75 15.625ZM15.625 15.6205C15.6239 15.3438 15.4518 14.5112 14.689 13.7485C13.9555 13.015 12.5751 12.25 10 12.25C7.42375 12.25 6.0445 13.015 5.311 13.7485C4.54825 14.5112 4.37725 15.3438 4.375 15.6205H15.625Z" fill="#878787"/>
</svg>
