<svg width="20" height="20" viewBox="0 0 20 20" fill="none" xmlns="http://www.w3.org/2000/svg">
<path d="M3.8125 10L3.26125 9.88975C3.25388 9.92604 3.25011 9.96297 3.25 10H3.8125ZM16.1875 10H16.75C16.7499 9.96297 16.7461 9.92604 16.7387 9.88975L16.1875 10ZM13.0938 10V9.4375C12.9715 9.43743 12.8525 9.4772 12.7549 9.55079C12.6573 9.62437 12.5862 9.72776 12.5526 9.84531L13.0938 10ZM6.90625 10L7.44681 9.84531C7.41322 9.72786 7.3423 9.62453 7.24477 9.55095C7.14724 9.47738 7.02842 9.43755 6.90625 9.4375V10ZM16.1762 7.07725C16.1427 6.93532 16.0554 6.81195 15.9327 6.73315C15.81 6.65436 15.6615 6.6263 15.5185 6.6549C15.3755 6.6835 15.2492 6.76652 15.1662 6.88645C15.0832 7.00638 15.0501 7.15385 15.0738 7.29775L16.1762 7.07725ZM3.25 11.9688C3.25 12.1179 3.30926 12.261 3.41475 12.3665C3.52024 12.472 3.66332 12.5312 3.8125 12.5312C3.96168 12.5312 4.10476 12.472 4.21025 12.3665C4.31574 12.261 4.375 12.1179 4.375 11.9688H3.25ZM4.92625 7.29775C4.94991 7.15385 4.91676 7.00638 4.83379 6.88645C4.75082 6.76652 4.62452 6.6835 4.48152 6.6549C4.33852 6.6263 4.19 6.65436 4.06728 6.73315C3.94457 6.81195 3.85725 6.93532 3.82375 7.07725L4.92625 7.29775ZM8.59375 5.5C8.44457 5.5 8.30149 5.55926 8.196 5.66475C8.09051 5.77024 8.03125 5.91332 8.03125 6.0625C8.03125 6.21168 8.09051 6.35476 8.196 6.46025C8.30149 6.56574 8.44457 6.625 8.59375 6.625V5.5ZM11.4062 6.625C11.5554 6.625 11.6985 6.56574 11.804 6.46025C11.9095 6.35476 11.9688 6.21168 11.9688 6.0625C11.9688 5.91332 11.9095 5.77024 11.804 5.66475C11.6985 5.55926 11.5554 5.5 11.4062 5.5V6.625ZM8.59375 7.75C8.44457 7.75 8.30149 7.80926 8.196 7.91475C8.09051 8.02024 8.03125 8.16332 8.03125 8.3125C8.03125 8.46168 8.09051 8.60476 8.196 8.71025C8.30149 8.81574 8.44457 8.875 8.59375 8.875V7.75ZM11.4062 8.875C11.5554 8.875 11.6985 8.81574 11.804 8.71025C11.9095 8.60476 11.9688 8.46168 11.9688 8.3125C11.9688 8.16332 11.9095 8.02024 11.804 7.91475C11.6985 7.80926 11.5554 7.75 11.4062 7.75V8.875ZM5.78125 8.3125C5.78125 8.46168 5.84051 8.60476 5.946 8.71025C6.05149 8.81574 6.19457 8.875 6.34375 8.875C6.49293 8.875 6.63601 8.81574 6.7415 8.71025C6.84699 8.60476 6.90625 8.46168 6.90625 8.3125H5.78125ZM6.34375 3.8125V3.25C6.19457 3.25 6.05149 3.30926 5.946 3.41475C5.84051 3.52024 5.78125 3.66332 5.78125 3.8125H6.34375ZM13.6562 3.8125H14.2188C14.2188 3.66332 14.1595 3.52024 14.054 3.41475C13.9485 3.30926 13.8054 3.25 13.6562 3.25V3.8125ZM13.0938 8.3125C13.0938 8.46168 13.153 8.60476 13.2585 8.71025C13.364 8.81574 13.5071 8.875 13.6562 8.875C13.8054 8.875 13.9485 8.81574 14.054 8.71025C14.1595 8.60476 14.2188 8.46168 14.2188 8.3125H13.0938ZM16.1875 10H15.625V14.5H16.75V10.0006L16.1875 10ZM15.625 14.5C15.625 14.7391 15.4996 15.0248 15.2622 15.2622C15.0248 15.4996 14.7391 15.625 14.5 15.625V16.75C15.1047 16.75 15.6627 16.4536 16.0581 16.0581C16.4536 15.6627 16.75 15.1047 16.75 14.5H15.625ZM5.5 15.625C5.26094 15.625 4.97519 15.4996 4.73781 15.2622C4.49987 15.0248 4.375 14.7391 4.375 14.5H3.25C3.25 15.1047 3.547 15.6627 3.94188 16.0581C4.33731 16.4536 4.89531 16.75 5.5 16.75V15.625ZM4.375 14.5V10H3.25V14.5H4.375ZM10 12.5312C11.4327 12.5312 12.3524 11.9659 12.9081 11.3669C13.1804 11.0744 13.3581 10.7813 13.4695 10.5591C13.5321 10.4335 13.5856 10.3036 13.6298 10.1704C13.6312 10.1661 13.6325 10.1618 13.6337 10.1575V10.1558L13.6343 10.1552L13.0938 10C12.9133 9.94929 12.7331 9.89753 12.5532 9.84475V9.84306L12.5538 9.84194V9.84081L12.5526 9.84644C12.5272 9.91797 12.4973 9.98786 12.4632 10.0557C12.3901 10.2031 12.2686 10.4022 12.0841 10.6013C11.7257 10.9872 11.0986 11.4062 10 11.4062V12.5312V12.5312ZM13.0938 10.5625H16.1875V9.4375H13.0938V10.5625ZM3.8125 10.5625H6.90625V9.4375H3.8125V10.5625ZM6.90625 10C6.72573 10.0506 6.54554 10.1023 6.36569 10.1552V10.1575L6.36737 10.1609C6.37085 10.1733 6.3746 10.1857 6.37863 10.198C6.38594 10.2194 6.3955 10.2486 6.409 10.2835C6.43544 10.3532 6.47481 10.4477 6.5305 10.5591C6.67852 10.8535 6.86753 11.1255 7.09187 11.3669C7.64762 11.9659 8.56731 12.5312 10 12.5312V11.4062C8.90144 11.4062 8.27425 10.9872 7.91594 10.6019C7.76447 10.4388 7.63683 10.2551 7.53681 10.0563C7.50188 9.98645 7.47144 9.91449 7.44569 9.84081V9.84194L7.44625 9.84306V9.84419L7.44681 9.84475L6.90625 10ZM14.5 15.625H5.5V16.75H14.5V15.625ZM15.0738 7.29775L15.6363 10.1102L16.7387 9.88975L16.1762 7.07725L15.0738 7.29775V7.29775ZM3.25 10V11.9688H4.375V10H3.25ZM3.82375 7.07725L3.26125 9.88975L4.36375 10.1102L4.92625 7.29775L3.82375 7.07725V7.07725ZM8.59375 6.625H11.4062V5.5H8.59375V6.625ZM8.59375 8.875H11.4062V7.75H8.59375V8.875ZM6.90625 8.3125V3.8125H5.78125V8.3125H6.90625ZM6.34375 4.375H13.6562V3.25H6.34375V4.375ZM13.0938 3.8125V8.3125H14.2188V3.8125H13.0938Z" fill="#878787"/>
</svg>
