<svg width="20" height="20" viewBox="0 0 20 20" fill="none" xmlns="http://www.w3.org/2000/svg">
<path d="M10.007 11.4168C10.7894 11.4168 11.4237 10.7826 11.4237 10.0002C11.4237 9.21776 10.7894 8.5835 10.007 8.5835C9.2246 8.5835 8.59033 9.21776 8.59033 10.0002C8.59033 10.7826 9.2246 11.4168 10.007 11.4168Z" fill="#878787"/>
<path d="M9.29875 17.0833H10.7154L11.0696 12.125H8.94458L9.29875 17.0833Z" fill="#878787"/>
<path d="M9.99993 2.9165C8.28007 2.92662 6.62263 3.56215 5.33691 4.70448C4.05118 5.84682 3.225 7.41794 3.01253 9.12465C2.80006 10.8314 3.21581 12.5571 4.18221 13.9798C5.1486 15.4025 6.59963 16.425 8.26451 16.8565L8.15826 15.3548C6.89061 14.9183 5.81882 14.0464 5.13337 12.8941C4.44792 11.7419 4.19322 10.3839 4.41455 9.06157C4.63587 7.73925 5.31887 6.53823 6.34217 5.67197C7.36546 4.80572 8.66275 4.33034 10.0035 4.33034C11.3442 4.33034 12.6415 4.80572 13.6648 5.67197C14.6881 6.53823 15.3711 7.73925 15.5924 9.06157C15.8137 10.3839 15.559 11.7419 14.8736 12.8941C14.1881 14.0464 13.1163 14.9183 11.8487 15.3548L11.7424 16.8565C13.4079 16.4248 14.8593 15.4018 15.8256 13.9783C16.792 12.5549 17.2072 10.8284 16.9938 9.12117C16.7804 7.41398 15.953 5.84282 14.666 4.70104C13.379 3.55927 11.7204 2.92494 9.99993 2.9165V2.9165Z" fill="#878787"/>
<path d="M12.3517 8.30712C12.4569 8.45731 12.5448 8.61889 12.6138 8.78879C12.6861 8.95983 12.7407 9.13785 12.7767 9.32004C12.8193 9.50592 12.8406 9.69602 12.8405 9.88671C12.8406 10.0797 12.8192 10.2722 12.7767 10.4605C12.7407 10.6427 12.6861 10.8207 12.6138 10.9917C12.5448 11.1616 12.4569 11.3232 12.3517 11.4734C12.2751 11.5797 12.1923 11.6814 12.1038 11.778L11.9692 13.6338C12.1105 13.5691 12.2477 13.4958 12.38 13.4142C12.8394 13.1124 13.2343 12.7223 13.5417 12.2667C13.6955 12.0446 13.826 11.8072 13.9313 11.5584C14.0406 11.3006 14.1236 11.0324 14.1792 10.758C14.2324 10.4707 14.2561 10.1788 14.25 9.88671C14.2474 9.59869 14.2166 9.31162 14.158 9.02962C14.0511 8.48966 13.8419 7.97512 13.5417 7.51379C13.389 7.28829 13.2159 7.07727 13.0246 6.88337C12.8326 6.69007 12.6213 6.51682 12.3942 6.36629C12.1706 6.21282 11.9335 6.08005 11.6859 5.96962C11.4175 5.86944 11.1399 5.7959 10.8571 5.75004C10.2937 5.63671 9.71342 5.63671 9.15004 5.75004C8.87483 5.806 8.60647 5.89149 8.34962 6.00504C8.10079 6.11031 7.86344 6.24085 7.64129 6.39462C7.41415 6.54515 7.20292 6.71841 7.01087 6.91171C6.80865 7.09505 6.6237 7.2966 6.45837 7.51379C6.15064 7.97352 5.93421 8.48814 5.82087 9.02962C5.76932 9.31232 5.7456 9.59939 5.75004 9.88671C5.74956 10.1745 5.77804 10.4617 5.83504 10.7438C5.89061 11.0182 5.97366 11.2864 6.08295 11.5442C6.18822 11.793 6.31877 12.0304 6.47254 12.2525C6.78094 12.7026 7.17 13.0916 7.62004 13.4C7.75233 13.4816 7.88954 13.555 8.03087 13.6196L7.87504 11.778C7.78648 11.6814 7.70369 11.5797 7.62712 11.4734C7.52191 11.3232 7.434 11.1616 7.36504 10.9917C7.29269 10.8207 7.2381 10.6427 7.20212 10.4605C7.16902 10.2711 7.15715 10.0787 7.1667 9.88671C7.16413 9.69629 7.18314 9.50618 7.22337 9.32004C7.25935 9.13785 7.31394 8.95983 7.38629 8.78879C7.45525 8.61889 7.54316 8.45731 7.64837 8.30712C7.7519 8.15178 7.87054 8.00705 8.00254 7.87504C8.13034 7.74826 8.27032 7.63438 8.42045 7.53504C8.57064 7.42983 8.73221 7.34192 8.90212 7.27296C9.07295 7.19833 9.25095 7.14137 9.43337 7.10296C9.81021 7.03216 10.1969 7.03216 10.5738 7.10296C10.7562 7.14137 10.9342 7.19833 11.105 7.27296C11.4447 7.40657 11.7516 7.61194 12.0046 7.87504C12.1361 8.0056 12.2526 8.15054 12.3517 8.30712V8.30712Z" fill="#878787"/>
</svg>
