<svg width="20" height="20" viewBox="0 0 20 20" fill="none" xmlns="http://www.w3.org/2000/svg">
<path d="M12.1094 16.6094H7.89062C7.81328 16.6094 7.75 16.6727 7.75 16.75V17.3125C7.75 17.6236 8.00137 17.875 8.3125 17.875H11.6875C11.9986 17.875 12.25 17.6236 12.25 17.3125V16.75C12.25 16.6727 12.1867 16.6094 12.1094 16.6094ZM10 2.125C6.8166 2.125 4.23438 4.70723 4.23438 7.89062C4.23438 10.0246 5.39453 11.8879 7.11719 12.8846V14.9219C7.11719 15.233 7.36855 15.4844 7.67969 15.4844H12.3203C12.6314 15.4844 12.8828 15.233 12.8828 14.9219V12.8846C14.6055 11.8879 15.7656 10.0246 15.7656 7.89062C15.7656 4.70723 13.1834 2.125 10 2.125ZM12.2482 11.7895L11.6172 12.1551V14.2188H8.38281V12.1551L7.75176 11.7895C6.36836 10.9896 5.5 9.5166 5.5 7.89062C5.5 5.40508 7.51445 3.39062 10 3.39062C12.4855 3.39062 14.5 5.40508 14.5 7.89062C14.5 9.5166 13.6316 10.9896 12.2482 11.7895Z" fill="#878787"/>
</svg>
