<svg width="20" height="20" viewBox="0 0 20 20" fill="none" xmlns="http://www.w3.org/2000/svg">
<path d="M14.3125 3.25C14.959 3.25 15.579 3.50681 16.0361 3.96393C16.4932 4.42105 16.75 5.04103 16.75 5.6875V14.3125C16.75 14.959 16.4932 15.579 16.0361 16.0361C15.579 16.4932 14.959 16.75 14.3125 16.75H5.6875C5.04103 16.75 4.42105 16.4932 3.96393 16.0361C3.50681 15.579 3.25 14.959 3.25 14.3125V5.6875C3.25 5.04103 3.50681 4.42105 3.96393 3.96393C4.42105 3.50681 5.04103 3.25 5.6875 3.25H14.3125ZM15.625 7.375H4.375V14.3125C4.375 15.037 4.963 15.625 5.6875 15.625H14.3125C14.6606 15.625 14.9944 15.4867 15.2406 15.2406C15.4867 14.9944 15.625 14.6606 15.625 14.3125V7.375ZM6.8125 11.875C7.06114 11.875 7.2996 11.9738 7.47541 12.1496C7.65123 12.3254 7.75 12.5639 7.75 12.8125C7.75 13.0611 7.65123 13.2996 7.47541 13.4754C7.2996 13.6512 7.06114 13.75 6.8125 13.75C6.56386 13.75 6.3254 13.6512 6.14959 13.4754C5.97377 13.2996 5.875 13.0611 5.875 12.8125C5.875 12.5639 5.97377 12.3254 6.14959 12.1496C6.3254 11.9738 6.56386 11.875 6.8125 11.875V11.875ZM10 11.875C10.2486 11.875 10.4871 11.9738 10.6629 12.1496C10.8387 12.3254 10.9375 12.5639 10.9375 12.8125C10.9375 13.0611 10.8387 13.2996 10.6629 13.4754C10.4871 13.6512 10.2486 13.75 10 13.75C9.75136 13.75 9.5129 13.6512 9.33709 13.4754C9.16127 13.2996 9.0625 13.0611 9.0625 12.8125C9.0625 12.5639 9.16127 12.3254 9.33709 12.1496C9.5129 11.9738 9.75136 11.875 10 11.875V11.875ZM6.8125 8.875C7.06114 8.875 7.2996 8.97377 7.47541 9.14959C7.65123 9.3254 7.75 9.56386 7.75 9.8125C7.75 10.0611 7.65123 10.2996 7.47541 10.4754C7.2996 10.6512 7.06114 10.75 6.8125 10.75C6.56386 10.75 6.3254 10.6512 6.14959 10.4754C5.97377 10.2996 5.875 10.0611 5.875 9.8125C5.875 9.56386 5.97377 9.3254 6.14959 9.14959C6.3254 8.97377 6.56386 8.875 6.8125 8.875V8.875ZM10 8.875C10.2486 8.875 10.4871 8.97377 10.6629 9.14959C10.8387 9.3254 10.9375 9.56386 10.9375 9.8125C10.9375 10.0611 10.8387 10.2996 10.6629 10.4754C10.4871 10.6512 10.2486 10.75 10 10.75C9.75136 10.75 9.5129 10.6512 9.33709 10.4754C9.16127 10.2996 9.0625 10.0611 9.0625 9.8125C9.0625 9.56386 9.16127 9.3254 9.33709 9.14959C9.5129 8.97377 9.75136 8.875 10 8.875V8.875ZM13.1875 8.875C13.4361 8.875 13.6746 8.97377 13.8504 9.14959C14.0262 9.3254 14.125 9.56386 14.125 9.8125C14.125 10.0611 14.0262 10.2996 13.8504 10.4754C13.6746 10.6512 13.4361 10.75 13.1875 10.75C12.9389 10.75 12.7004 10.6512 12.5246 10.4754C12.3488 10.2996 12.25 10.0611 12.25 9.8125C12.25 9.56386 12.3488 9.3254 12.5246 9.14959C12.7004 8.97377 12.9389 8.875 13.1875 8.875ZM14.3125 4.375H5.6875C5.3394 4.375 5.00556 4.51328 4.75942 4.75942C4.51328 5.00556 4.375 5.3394 4.375 5.6875V6.25H15.625V5.6875C15.625 5.3394 15.4867 5.00556 15.2406 4.75942C14.9944 4.51328 14.6606 4.375 14.3125 4.375Z" fill="#878787"/>
</svg>
